<?xml version="1.0" encoding="UTF-8" standalone="no"?><!DOCTYPE svg PUBLIC "-//W3C//DTD SVG 1.1//EN" "http://www.w3.org/Graphics/SVG/1.1/DTD/svg11.dtd"><svg width="100%" height="100%" viewBox="0 0 400 150" version="1.1" xmlns="http://www.w3.org/2000/svg" xmlns:xlink="http://www.w3.org/1999/xlink" xml:space="preserve" xmlns:serif="http://www.serif.com/" style="fill-rule:evenodd;clip-rule:evenodd;stroke-linejoin:round;stroke-miterlimit:1.41421;"><g><g><path d="M110.9,45.885c0.022,-0.021 0.048,-0.035 0.07,-0.057l4.34,-4.339c2.533,-2.538 2.521,-6.678 -0.033,-9.228c-2.549,-2.553 -6.692,-2.565 -9.227,-0.032l-4.172,4.172c-9.121,-7.66 -20.625,-12.563 -33.241,-13.455l0,-8.478l8.314,0c2.286,0 4.157,-1.87 4.157,-4.157c0,-2.286 -1.871,-4.157 -4.157,-4.157l-24.942,0c-2.287,0 -4.157,1.871 -4.157,4.157c0,2.287 1.87,4.157 4.157,4.157l8.314,0l0,8.478c-12.427,0.878 -23.78,5.641 -32.835,13.104l-3.819,-3.821c-2.537,-2.533 -6.678,-2.521 -9.229,0.032c-2.552,2.55 -2.564,6.69 -0.031,9.228l3.979,3.979c-7.584,9.827 -12.106,22.138 -12.106,35.512c0,32.142 26.056,58.198 58.198,58.198c32.141,0 58.198,-26.056 58.198,-58.198c0,-13.183 -4.389,-25.337 -11.778,-35.095Zm-46.42,84.979c-27.551,0 -49.884,-22.333 -49.884,-49.884c0,-27.55 22.333,-49.884 49.884,-49.884c27.55,0 49.884,22.334 49.884,49.884c0,27.551 -22.334,49.884 -49.884,49.884Z" style="fill:#003953;fill-rule:nonzero;"/><circle cx="64.48" cy="80.98" r="49.884" style="fill:#fff;"/><path d="M97.736,83.059c-1.149,0 -2.079,-0.93 -2.079,-2.079c0,-1.148 0.93,-2.078 2.079,-2.078l8.209,0c-1.055,-21.298 -18.094,-38.331 -39.387,-39.387l0,8.209c0,1.149 -0.929,2.079 -2.078,2.079c-1.149,0 -2.079,-0.93 -2.079,-2.079l0,-8.209c-21.292,1.056 -38.331,18.089 -39.386,39.387l8.209,0c1.149,0 2.078,0.93 2.078,2.078c0,1.149 -0.929,2.079 -2.078,2.079l-8.209,0c1.055,21.298 18.094,38.331 39.386,39.386l0,-8.209c0,-1.148 0.93,-2.078 2.079,-2.078c1.149,0 2.078,0.93 2.078,2.078l0,8.209c21.293,-1.055 38.332,-18.088 39.387,-39.386l-8.209,0Z" style="fill:#6ebf5d;fill-rule:nonzero;"/><path d="M92.361,53.099c-1.622,-1.624 -4.256,-1.624 -5.878,0l-21.678,21.679c-0.111,-0.006 -0.214,-0.033 -0.325,-0.033c-3.443,0 -6.236,2.793 -6.236,6.235c0,3.447 2.793,6.236 6.236,6.236c3.442,0 6.235,-2.789 6.235,-6.236c0,-0.111 -0.026,-0.214 -0.032,-0.324l21.678,-21.678c1.624,-1.624 1.624,-4.255 0,-5.879Z" style="fill:#003953;fill-rule:nonzero;"/></g><text x="150.469px" y="65.366px" style="font-family:'HappyMonkey-Regular', 'Happy Monkey';font-size:84.588px;fill:#003953;">Z<tspan x="203.082px " y="65.366px ">e</tspan>it</text><text x="317.293px" y="79.56px" style="font-family:'HappyMonkey-Regular', 'Happy Monkey';font-size:54.136px;fill:#6ebf5d;">zu</text><text x="132.679px" y="138.248px" style="font-family:'HappyMonkey-Regular', 'Happy Monkey';font-size:84.588px;fill:#003953;">Helf<tspan x="290.859px " y="138.248px ">e</tspan>n</text></g></svg>